<svg width="35" height="36" viewBox="0 0 35 36" fill="none" xmlns="http://www.w3.org/2000/svg">
<rect width="28.5185" height="2.5679" fill="#3E3E3E"/>
<rect y="5.13574" width="28.5185" height="2.5679" fill="#3E3E3E"/>
<rect x="25.9259" y="7.75342" width="7.7037" height="2.59259" transform="rotate(-90 25.9259 7.75342)" fill="#3E3E3E"/>
<rect y="7.75342" width="7.7037" height="2.59259" transform="rotate(-90 0 7.75342)" fill="#3E3E3E"/>
<rect x="14.2593" y="23.1606" width="7.80247" height="2.59259" transform="rotate(-90 14.2593 23.1606)" fill="#3E3E3E"/>
<rect x="14.2593" y="20.5435" width="7.77778" height="2.5679" fill="#3E3E3E"/>
<rect x="27.2222" y="28.2466" width="7.77778" height="2.5679" fill="#3E3E3E"/>
<rect x="32.4073" y="36" width="7.7037" height="2.59259" transform="rotate(-90 32.4073 36)" fill="#3E3E3E"/>
<path fill-rule="evenodd" clip-rule="evenodd" d="M23.7582 13.0362C24.1082 12.9878 24.4657 12.9628 24.829 12.9628C25.3912 12.9628 25.9394 13.0227 26.4678 13.1365L27.4124 5.98582L24.73 5.67969L23.7582 13.0362Z" fill="#3E3E3E"/>
<path fill-rule="evenodd" clip-rule="evenodd" d="M24.6296 35.9505C29.455 35.9505 33.5107 32.6783 34.6684 28.247H31.9529C30.8757 31.2121 28.0035 33.3332 24.6296 33.3332C20.3426 33.3332 16.8656 29.9087 16.8519 25.6793H14.2593C14.2729 31.3542 18.9106 35.9505 24.6296 35.9505ZM14.5779 23.1114C15.7182 18.6547 19.7861 15.3579 24.6296 15.3579C30.357 15.3579 35 19.9677 35 25.6542L35 25.6791H32.4074L32.4074 25.6541C32.4074 21.4131 28.9252 17.9751 24.6296 17.9751C21.2367 17.9751 18.3513 20.12 17.2884 23.1114H14.5779Z" fill="#3E3E3E"/>
<path fill-rule="evenodd" clip-rule="evenodd" d="M1.29633 7.64872L3.67339 27.7525L6.32662 27.4612L6.13299 25.8235C5.98598 25.4605 5.892 25.0694 5.86096 24.6594L5.62163 21.4988L3.94956 7.35742L1.29633 7.64872Z" fill="#3E3E3E"/>
<path fill-rule="evenodd" clip-rule="evenodd" d="M5.71423 22.7231C4.42484 23.425 3.53992 24.872 3.53992 26.5432C3.53992 28.9024 5.30335 30.8148 7.47866 30.8148C9.15992 30.8148 10.5952 29.6724 11.1604 28.0643C10.8042 28.1829 10.4232 28.2471 10.0272 28.2471H9.73046C7.70087 28.2471 6.01409 26.6833 5.86085 24.6595L5.71423 22.7231Z" fill="#3E3E3E"/>
<path fill-rule="evenodd" clip-rule="evenodd" d="M11.9713 28.2466H7.5285V30.8145H12.7562C12.3952 29.9937 12.1288 29.1332 11.9713 28.2466Z" fill="#3E3E3E"/>
</svg>
